<svg xmlns="http://www.w3.org/2000/svg" viewBox="0 0 400 600" width="400" height="600">
  <defs>
    <linearGradient id="bottle" x1="0" y1="0" x2="1" y2="0">
      <stop offset="0%" stop-color="#1a1a2e"/>
      <stop offset="30%" stop-color="#2d2d4e"/>
      <stop offset="70%" stop-color="#1a1a2e"/>
      <stop offset="100%" stop-color="#0d0d1a"/>
    </linearGradient>
    <linearGradient id="cap" x1="0" y1="0" x2="1" y2="0">
      <stop offset="0%" stop-color="#2a2a3a"/>
      <stop offset="50%" stop-color="#3d3d5e"/>
      <stop offset="100%" stop-color="#1a1a2e"/>
    </linearGradient>
    <linearGradient id="label" x1="0" y1="0" x2="0" y2="1">
      <stop offset="0%" stop-color="#e8e8e8"/>
      <stop offset="15%" stop-color="#ffffff"/>
      <stop offset="40%" stop-color="#3b5998"/>
      <stop offset="100%" stop-color="#2a3f7a"/>
    </linearGradient>
  </defs>
  <rect x="120" y="30" width="160" height="80" rx="8" fill="url(#cap)" stroke="#333" stroke-width="1"/>
  <rect x="125" y="35" width="150" height="10" rx="3" fill="#444" opacity="0.5"/>
  <line x1="130" y1="50" x2="130" y2="100" stroke="#444" stroke-width="0.5" opacity="0.3"/>
  <line x1="140" y1="50" x2="140" y2="100" stroke="#444" stroke-width="0.5" opacity="0.3"/>
  <line x1="150" y1="50" x2="150" y2="100" stroke="#444" stroke-width="0.5" opacity="0.3"/>
  <line x1="160" y1="50" x2="160" y2="100" stroke="#444" stroke-width="0.5" opacity="0.3"/>
  <line x1="170" y1="50" x2="170" y2="100" stroke="#444" stroke-width="0.5" opacity="0.3"/>
  <line x1="180" y1="50" x2="180" y2="100" stroke="#444" stroke-width="0.5" opacity="0.3"/>
  <line x1="190" y1="50" x2="190" y2="100" stroke="#444" stroke-width="0.5" opacity="0.3"/>
  <line x1="200" y1="50" x2="200" y2="100" stroke="#444" stroke-width="0.5" opacity="0.3"/>
  <line x1="210" y1="50" x2="210" y2="100" stroke="#444" stroke-width="0.5" opacity="0.3"/>
  <line x1="220" y1="50" x2="220" y2="100" stroke="#444" stroke-width="0.5" opacity="0.3"/>
  <line x1="230" y1="50" x2="230" y2="100" stroke="#444" stroke-width="0.5" opacity="0.3"/>
  <line x1="240" y1="50" x2="240" y2="100" stroke="#444" stroke-width="0.5" opacity="0.3"/>
  <line x1="250" y1="50" x2="250" y2="100" stroke="#444" stroke-width="0.5" opacity="0.3"/>
  <line x1="260" y1="50" x2="260" y2="100" stroke="#444" stroke-width="0.5" opacity="0.3"/>
  <path d="M105,120 Q105,110 120,110 L280,110 Q295,110 295,120 L310,550 Q310,570 290,570 L110,570 Q90,570 90,550 Z" fill="url(#bottle)" stroke="#222" stroke-width="1"/>
  <rect x="100" y="160" width="200" height="350" rx="4" fill="url(#label)"/>
  <rect x="100" y="160" width="200" height="4" fill="#e91e8c"/>
  <rect x="100" y="164" width="200" height="30" fill="#d4d4d4"/>
  <text x="200" y="185" font-family="Arial,sans-serif" font-size="14" font-weight="bold" fill="#333" text-anchor="middle" letter-spacing="3">NEUROTONICS®</text>
  <rect x="100" y="194" width="200" height="316" rx="0" fill="#2a3f7a"/>
  <text x="200" y="260" font-family="Arial Black,Arial,sans-serif" font-size="38" font-weight="900" fill="#ffffff" text-anchor="middle">BRAIN</text>
  <text x="200" y="305" font-family="Arial Black,Arial,sans-serif" font-size="38" font-weight="900" fill="#ffffff" text-anchor="middle">BOOST</text>
  <text x="200" y="355" font-family="Arial Black,Arial,sans-serif" font-size="42" font-weight="900" fill="#00d4ff" text-anchor="middle">1000</text>
  <circle cx="140" cy="400" r="18" fill="none" stroke="#aaa" stroke-width="1.5"/>
  <text x="140" y="405" font-family="Arial,sans-serif" font-size="10" fill="#ddd" text-anchor="middle">🧠</text>
  <text x="140" y="430" font-family="Arial,sans-serif" font-size="7" fill="#ccc" text-anchor="middle">BRAIN</text>
  <text x="140" y="438" font-family="Arial,sans-serif" font-size="7" fill="#ccc" text-anchor="middle" font-weight="bold">HEALTH</text>
  <circle cx="200" cy="400" r="18" fill="none" stroke="#aaa" stroke-width="1.5"/>
  <text x="200" y="405" font-family="Arial,sans-serif" font-size="10" fill="#ddd" text-anchor="middle">💡</text>
  <text x="200" y="430" font-family="Arial,sans-serif" font-size="7" fill="#ccc" text-anchor="middle">SHORT TERM</text>
  <text x="200" y="438" font-family="Arial,sans-serif" font-size="7" fill="#ccc" text-anchor="middle" font-weight="bold">MEMORY</text>
  <circle cx="260" cy="400" r="18" fill="none" stroke="#aaa" stroke-width="1.5"/>
  <text x="260" y="405" font-family="Arial,sans-serif" font-size="10" fill="#ddd" text-anchor="middle">🎯</text>
  <text x="260" y="430" font-family="Arial,sans-serif" font-size="7" fill="#ccc" text-anchor="middle">MENTAL</text>
  <text x="260" y="438" font-family="Arial,sans-serif" font-size="7" fill="#ccc" text-anchor="middle" font-weight="bold">FOCUS</text>
  <rect x="145" y="455" width="110" height="22" rx="11" fill="#e91e8c"/>
  <text x="200" y="470" font-family="Arial,sans-serif" font-size="11" font-weight="bold" fill="#ffffff" text-anchor="middle">60 CAPSULES</text>
  <text x="200" y="492" font-family="Arial,sans-serif" font-size="8" fill="#ccc" text-anchor="middle">VEGAN FRIENDLY | GLUTEN FREE</text>
  <text x="200" y="503" font-family="Arial,sans-serif" font-size="8" fill="#ffffff" text-anchor="middle" font-weight="bold">NATURAL PRODUCT</text>
</svg>